<mxfile host="app.diagrams.net" agent="Mozilla/5.0 (Windows NT 10.0; Win64; x64) AppleWebKit/537.36 (KHTML, like Gecko) Chrome/137.0.0.0 Safari/537.36 Edg/137.0.0.0" version="27.1.5">
  <diagram name="Page-1" id="dRynceKOeLgYZHqYnfhB">
    <mxGraphModel dx="1904" dy="1823" grid="1" gridSize="10" guides="1" tooltips="1" connect="1" arrows="1" fold="1" page="1" pageScale="1" pageWidth="850" pageHeight="1100" math="0" shadow="0">
      <root>
        <mxCell id="0" />
        <mxCell id="1" parent="0" />
        <mxCell id="M-5llR0UdXuusFImuPWX-5" style="edgeStyle=orthogonalEdgeStyle;rounded=0;orthogonalLoop=1;jettySize=auto;html=1;exitX=1;exitY=0.5;exitDx=0;exitDy=0;entryX=0;entryY=0.5;entryDx=0;entryDy=0;" edge="1" parent="1" source="M-5llR0UdXuusFImuPWX-1" target="M-5llR0UdXuusFImuPWX-4">
          <mxGeometry relative="1" as="geometry" />
        </mxCell>
        <mxCell id="M-5llR0UdXuusFImuPWX-1" value="激光器" style="rounded=0;whiteSpace=wrap;html=1;" vertex="1" parent="1">
          <mxGeometry x="70" y="190" width="80" height="40" as="geometry" />
        </mxCell>
        <mxCell id="M-5llR0UdXuusFImuPWX-6" style="edgeStyle=orthogonalEdgeStyle;rounded=0;orthogonalLoop=1;jettySize=auto;html=1;exitX=0.5;exitY=1;exitDx=0;exitDy=0;entryX=0.5;entryY=0;entryDx=0;entryDy=0;" edge="1" parent="1" source="M-5llR0UdXuusFImuPWX-3" target="M-5llR0UdXuusFImuPWX-4">
          <mxGeometry relative="1" as="geometry">
            <Array as="points">
              <mxPoint x="423" y="140" />
              <mxPoint x="220" y="140" />
            </Array>
          </mxGeometry>
        </mxCell>
        <mxCell id="M-5llR0UdXuusFImuPWX-23" style="edgeStyle=orthogonalEdgeStyle;rounded=0;orthogonalLoop=1;jettySize=auto;html=1;exitX=1;exitY=0.5;exitDx=0;exitDy=0;entryX=0.5;entryY=0;entryDx=0;entryDy=0;" edge="1" parent="1" source="M-5llR0UdXuusFImuPWX-3" target="M-5llR0UdXuusFImuPWX-21">
          <mxGeometry relative="1" as="geometry" />
        </mxCell>
        <mxCell id="M-5llR0UdXuusFImuPWX-3" value="正弦波&lt;div&gt;发生器&lt;/div&gt;" style="rounded=0;whiteSpace=wrap;html=1;" vertex="1" parent="1">
          <mxGeometry x="390" y="120" width="70" height="40" as="geometry" />
        </mxCell>
        <mxCell id="M-5llR0UdXuusFImuPWX-17" style="edgeStyle=orthogonalEdgeStyle;rounded=0;orthogonalLoop=1;jettySize=auto;html=1;exitX=1;exitY=0.5;exitDx=0;exitDy=0;entryX=0;entryY=0.5;entryDx=0;entryDy=0;" edge="1" parent="1" source="M-5llR0UdXuusFImuPWX-4" target="M-5llR0UdXuusFImuPWX-7">
          <mxGeometry relative="1" as="geometry" />
        </mxCell>
        <mxCell id="M-5llR0UdXuusFImuPWX-4" value="EOM调制" style="rounded=0;whiteSpace=wrap;html=1;" vertex="1" parent="1">
          <mxGeometry x="180" y="190" width="80" height="40" as="geometry" />
        </mxCell>
        <mxCell id="M-5llR0UdXuusFImuPWX-19" style="edgeStyle=orthogonalEdgeStyle;rounded=0;orthogonalLoop=1;jettySize=auto;html=1;exitX=1;exitY=0.5;exitDx=0;exitDy=0;entryX=0;entryY=0.5;entryDx=0;entryDy=0;" edge="1" parent="1" source="M-5llR0UdXuusFImuPWX-7" target="M-5llR0UdXuusFImuPWX-11">
          <mxGeometry relative="1" as="geometry" />
        </mxCell>
        <mxCell id="M-5llR0UdXuusFImuPWX-7" value="进腔" style="rounded=0;whiteSpace=wrap;html=1;" vertex="1" parent="1">
          <mxGeometry x="290" y="190" width="70" height="40" as="geometry" />
        </mxCell>
        <mxCell id="M-5llR0UdXuusFImuPWX-8" value="" style="ellipse;whiteSpace=wrap;html=1;" vertex="1" parent="1">
          <mxGeometry x="1380" y="220" width="80" height="80" as="geometry" />
        </mxCell>
        <mxCell id="M-5llR0UdXuusFImuPWX-9" value="Text" style="text;html=1;align=center;verticalAlign=middle;resizable=0;points=[];autosize=1;strokeColor=none;fillColor=none;" vertex="1" parent="1">
          <mxGeometry x="475" y="-372" width="50" height="30" as="geometry" />
        </mxCell>
        <mxCell id="M-5llR0UdXuusFImuPWX-10" value="Text" style="text;html=1;align=center;verticalAlign=middle;resizable=0;points=[];autosize=1;strokeColor=none;fillColor=none;" vertex="1" parent="1">
          <mxGeometry x="-425" y="-302" width="50" height="30" as="geometry" />
        </mxCell>
        <mxCell id="M-5llR0UdXuusFImuPWX-24" style="edgeStyle=orthogonalEdgeStyle;rounded=0;orthogonalLoop=1;jettySize=auto;html=1;exitX=1;exitY=0.5;exitDx=0;exitDy=0;entryX=0;entryY=0.5;entryDx=0;entryDy=0;" edge="1" parent="1" source="M-5llR0UdXuusFImuPWX-11" target="M-5llR0UdXuusFImuPWX-21">
          <mxGeometry relative="1" as="geometry" />
        </mxCell>
        <mxCell id="M-5llR0UdXuusFImuPWX-37" style="edgeStyle=orthogonalEdgeStyle;rounded=0;orthogonalLoop=1;jettySize=auto;html=1;exitX=0.5;exitY=1;exitDx=0;exitDy=0;entryX=0.5;entryY=0;entryDx=0;entryDy=0;" edge="1" parent="1" source="M-5llR0UdXuusFImuPWX-11" target="M-5llR0UdXuusFImuPWX-12">
          <mxGeometry relative="1" as="geometry" />
        </mxCell>
        <mxCell id="M-5llR0UdXuusFImuPWX-11" value="透射光强" style="rounded=0;whiteSpace=wrap;html=1;" vertex="1" parent="1">
          <mxGeometry x="390" y="190" width="70" height="40" as="geometry" />
        </mxCell>
        <mxCell id="M-5llR0UdXuusFImuPWX-38" style="edgeStyle=orthogonalEdgeStyle;rounded=0;orthogonalLoop=1;jettySize=auto;html=1;exitX=1;exitY=0.5;exitDx=0;exitDy=0;entryX=0;entryY=0.5;entryDx=0;entryDy=0;" edge="1" parent="1" source="M-5llR0UdXuusFImuPWX-12" target="M-5llR0UdXuusFImuPWX-36">
          <mxGeometry relative="1" as="geometry" />
        </mxCell>
        <mxCell id="M-5llR0UdXuusFImuPWX-41" style="edgeStyle=orthogonalEdgeStyle;rounded=0;orthogonalLoop=1;jettySize=auto;html=1;exitX=1;exitY=0;exitDx=0;exitDy=0;entryX=0.5;entryY=1;entryDx=0;entryDy=0;" edge="1" parent="1" source="M-5llR0UdXuusFImuPWX-12" target="M-5llR0UdXuusFImuPWX-25">
          <mxGeometry relative="1" as="geometry">
            <Array as="points">
              <mxPoint x="460" y="250" />
              <mxPoint x="645" y="250" />
            </Array>
          </mxGeometry>
        </mxCell>
        <mxCell id="M-5llR0UdXuusFImuPWX-12" value="状态机" style="rounded=0;whiteSpace=wrap;html=1;" vertex="1" parent="1">
          <mxGeometry x="390" y="260" width="70" height="40" as="geometry" />
        </mxCell>
        <mxCell id="M-5llR0UdXuusFImuPWX-26" style="edgeStyle=orthogonalEdgeStyle;rounded=0;orthogonalLoop=1;jettySize=auto;html=1;exitX=1;exitY=0.5;exitDx=0;exitDy=0;entryX=0;entryY=0.5;entryDx=0;entryDy=0;" edge="1" parent="1" source="M-5llR0UdXuusFImuPWX-21" target="M-5llR0UdXuusFImuPWX-25">
          <mxGeometry relative="1" as="geometry" />
        </mxCell>
        <mxCell id="M-5llR0UdXuusFImuPWX-21" value="解调" style="rounded=0;whiteSpace=wrap;html=1;" vertex="1" parent="1">
          <mxGeometry x="500" y="190" width="70" height="40" as="geometry" />
        </mxCell>
        <mxCell id="M-5llR0UdXuusFImuPWX-29" style="edgeStyle=orthogonalEdgeStyle;rounded=0;orthogonalLoop=1;jettySize=auto;html=1;exitX=1;exitY=0.5;exitDx=0;exitDy=0;entryX=0;entryY=0.5;entryDx=0;entryDy=0;" edge="1" parent="1" source="M-5llR0UdXuusFImuPWX-25" target="M-5llR0UdXuusFImuPWX-27">
          <mxGeometry relative="1" as="geometry" />
        </mxCell>
        <mxCell id="M-5llR0UdXuusFImuPWX-25" value="滤波 PID&lt;span style=&quot;white-space: pre;&quot;&gt;&lt;/span&gt;" style="rounded=0;whiteSpace=wrap;html=1;" vertex="1" parent="1">
          <mxGeometry x="610" y="190" width="70" height="40" as="geometry" />
        </mxCell>
        <mxCell id="M-5llR0UdXuusFImuPWX-31" style="edgeStyle=orthogonalEdgeStyle;rounded=0;orthogonalLoop=1;jettySize=auto;html=1;exitX=1;exitY=0.5;exitDx=0;exitDy=0;entryX=0;entryY=0.5;entryDx=0;entryDy=0;" edge="1" parent="1" source="M-5llR0UdXuusFImuPWX-27" target="M-5llR0UdXuusFImuPWX-30">
          <mxGeometry relative="1" as="geometry" />
        </mxCell>
        <mxCell id="M-5llR0UdXuusFImuPWX-27" value="SUM" style="rounded=0;whiteSpace=wrap;html=1;" vertex="1" parent="1">
          <mxGeometry x="700" y="190" width="70" height="40" as="geometry" />
        </mxCell>
        <mxCell id="M-5llR0UdXuusFImuPWX-34" style="edgeStyle=orthogonalEdgeStyle;rounded=0;orthogonalLoop=1;jettySize=auto;html=1;exitX=0.5;exitY=0;exitDx=0;exitDy=0;entryX=0.5;entryY=0;entryDx=0;entryDy=0;" edge="1" parent="1" source="M-5llR0UdXuusFImuPWX-30" target="M-5llR0UdXuusFImuPWX-33">
          <mxGeometry relative="1" as="geometry" />
        </mxCell>
        <mxCell id="M-5llR0UdXuusFImuPWX-30" value="反馈信号" style="rounded=0;whiteSpace=wrap;html=1;" vertex="1" parent="1">
          <mxGeometry x="800" y="190" width="70" height="40" as="geometry" />
        </mxCell>
        <mxCell id="M-5llR0UdXuusFImuPWX-35" style="edgeStyle=orthogonalEdgeStyle;rounded=0;orthogonalLoop=1;jettySize=auto;html=1;exitX=0.5;exitY=1;exitDx=0;exitDy=0;entryX=0;entryY=0.5;entryDx=0;entryDy=0;" edge="1" parent="1" source="M-5llR0UdXuusFImuPWX-33" target="M-5llR0UdXuusFImuPWX-1">
          <mxGeometry relative="1" as="geometry" />
        </mxCell>
        <mxCell id="M-5llR0UdXuusFImuPWX-33" value="激光器控制端口" style="rounded=0;whiteSpace=wrap;html=1;" vertex="1" parent="1">
          <mxGeometry y="120" width="70" height="40" as="geometry" />
        </mxCell>
        <mxCell id="M-5llR0UdXuusFImuPWX-42" style="edgeStyle=orthogonalEdgeStyle;rounded=0;orthogonalLoop=1;jettySize=auto;html=1;exitX=1;exitY=0.5;exitDx=0;exitDy=0;entryX=0.5;entryY=1;entryDx=0;entryDy=0;" edge="1" parent="1" source="M-5llR0UdXuusFImuPWX-36" target="M-5llR0UdXuusFImuPWX-27">
          <mxGeometry relative="1" as="geometry" />
        </mxCell>
        <mxCell id="M-5llR0UdXuusFImuPWX-36" value="锯齿波发生器（扫描）" style="rounded=0;whiteSpace=wrap;html=1;" vertex="1" parent="1">
          <mxGeometry x="540" y="260" width="70" height="40" as="geometry" />
        </mxCell>
        <mxCell id="M-5llR0UdXuusFImuPWX-44" style="edgeStyle=orthogonalEdgeStyle;rounded=0;orthogonalLoop=1;jettySize=auto;html=1;exitX=1;exitY=0.5;exitDx=0;exitDy=0;entryX=0;entryY=0.5;entryDx=0;entryDy=0;" edge="1" parent="1" source="M-5llR0UdXuusFImuPWX-43" target="M-5llR0UdXuusFImuPWX-12">
          <mxGeometry relative="1" as="geometry" />
        </mxCell>
        <mxCell id="M-5llR0UdXuusFImuPWX-43" value="PC" style="rounded=0;whiteSpace=wrap;html=1;" vertex="1" parent="1">
          <mxGeometry x="290" y="260" width="70" height="40" as="geometry" />
        </mxCell>
      </root>
    </mxGraphModel>
  </diagram>
</mxfile>
